<svg version="1.2" xmlns="http://www.w3.org/2000/svg" viewBox="0 0 3000 2000" width="3000" height="2000">
	<title>11879344_Checklist</title>
	<style>
		.s0 { fill: #a9bae6 } 
		.s1 { fill: #f6f5f5 } 
		.s2 { fill: #e4e4e4 } 
		.s3 { fill: #ffffff } 
		.s4 { fill: #708cd5 } 
		.s5 { fill: #d3dfff } 
		.s6 { fill: #ffffff;stroke: #708cd5;stroke-miterlimit:10;stroke-width: 6 } 
		.s7 { fill: #ee6f57 } 
		.s8 { fill: #f9b384 } 
		.s9 { fill: #1f3c88 } 
		.s10 { fill: #e28b6d } 
		.s11 { fill: #102048 } 
		.s12 { opacity: .6;fill: #102048 } 
		.s13 { opacity: .3;fill: #1f3c88 } 
		.s14 { opacity: .6;fill: #e28b6d } 
		.s15 { fill: #6f3428 } 
		.s16 { fill: #fbc343 } 
		.s17 { opacity: .3;fill: none;stroke: #6f3428;stroke-miterlimit:10;stroke-width: 8 } 
		.s18 { opacity: .4;fill: #fc8879 } 
		.s19 { opacity: .6;fill: #6f3428 } 
		.s20 { fill: none;stroke: #102048;stroke-miterlimit:10;stroke-width: 8 } 
	</style>
	<g id="Layer 1">
		<g id="&lt;Group&gt;">
			<g id="&lt;Group&gt;">
				<g id="&lt;Group&gt;">
					<path id="&lt;Path&gt;" class="s0" d="m2399.8 1796.7h-881.6c-41.1 0-74.4-33.3-74.4-74.3v-1264.8c0-41 33.3-74.3 74.4-74.3h881.6c41.1 0 74.4 33.3 74.4 74.3v1264.8c0 41-33.3 74.3-74.4 74.3z"/>
					<g id="&lt;Group&gt;">
						<g id="&lt;Group&gt;">
							<path id="&lt;Path&gt;" class="s1" d="m2385 440.3v1231.9h-848v-1231.9z"/>
							<path id="&lt;Path&gt;" class="s2" d="m2385 440.3c0.3 480.4 15.8 1059.7-38.2 1188-237.7 23.1-515.9 30.6-809.9 31.9l111.8-1216.2z"/>
							<path id="&lt;Path&gt;" class="s3" d="m2308.8 1589.5c-370.4 59.2-618 62.4-818.8 47.5 26-277 36.5-737.2 46.9-1196.7l446.4 1 404 26.7c5.9 476.8 6.6 917.3-78.5 1121.5z"/>
						</g>
						<g id="&lt;Group&gt;">
							<path id="&lt;Path&gt;" class="s4" d="m2176.3 632.3l-446.1-10.5 1.6-67.9 446.1 10.5z"/>
							<g id="&lt;Group&gt;">
								<g id="&lt;Group&gt;">
									<g id="&lt;Group&gt;">
										<path id="&lt;Path&gt;" class="s4" d="m2263.9 730.7l-402.4-9.5-0.7 31.1 402.4 9.5z"/>
										<path id="&lt;Path&gt;" class="s5" d="m2133.5 795.5l-273.6-6.5-0.7 31.1 273.5 6.5z"/>
									</g>
									<g id="&lt;Group&gt;">
										<path id="&lt;Path&gt;" class="s6" d="m1732.5 815.3l-95.3-2.2 2.3-95.3 95.2 2.3z"/>
										<g id="&lt;Group&gt;">
											<path id="&lt;Path&gt;" class="s7" d="m1655 742.9c3 11.2 8.4 58.4 32 45.2 5.4-3 10.1-11.1 14.1-15.7q11-12.5 22-24.9 22-25 44-49.9c3.7-4.3-12.9-15-17.6-9.6q-19.5 22.1-39 44.3-9.8 11.1-19.6 22.2c-4.5 5.1-14.9 21.7-21.6 23.1q5.4 1.8 10.9 3.6c2.6 2.1-2.2-12.9-2.3-13.3q-2.8-10.5-5.5-20.9c-1.5-5.7-19.6-12.6-17.4-4.1z"/>
										</g>
									</g>
								</g>
								<g id="&lt;Group&gt;">
									<g id="&lt;Group&gt;">
										<path id="&lt;Path&gt;" class="s4" d="m2188.8 902.2l-331.3-7.8-0.8 31.1 331.4 7.8z"/>
										<path id="&lt;Path&gt;" class="s5" d="m2258.3 971.7l-402.4-9.5-0.8 31.1 402.4 9.5z"/>
									</g>
									<g id="&lt;Group&gt;">
										<path id="&lt;Path&gt;" class="s6" d="m1728.4 988.5l-95.2-2.2 2.2-95.3 95.3 2.2z"/>
										<g id="&lt;Group&gt;">
											<path id="&lt;Path&gt;" class="s7" d="m1650.9 918.8c2.9 11.2 8.3 58.4 32 45.2 5.4-3.1 10-11.1 14.1-15.7q11-12.5 22-25 21.9-24.9 43.9-49.9c3.8-4.2-12.8-14.9-17.5-9.6q-19.6 22.2-39.1 44.4-9.7 11.1-19.5 22.2c-4.5 5.1-15 21.6-21.7 23.1q5.5 1.8 11 3.5c2.5 2.2-2.3-12.8-2.4-13.2q-2.7-10.5-5.4-20.9c-1.5-5.8-19.7-12.7-17.4-4.1z"/>
										</g>
									</g>
								</g>
								<g id="&lt;Group&gt;">
									<g id="&lt;Group&gt;">
										<path id="&lt;Path&gt;" class="s4" d="m2255.8 1077.1l-402.4-9.5-0.7 31.1 402.4 9.5z"/>
										<path id="&lt;Path&gt;" class="s5" d="m2031.8 1139.6l-180-4.2-0.7 31.1 179.9 4.2z"/>
									</g>
									<g id="&lt;Group&gt;">
										<path id="&lt;Path&gt;" class="s6" d="m1724.4 1161.7l-95.3-2.2 2.2-95.3 95.3 2.2z"/>
										<g id="&lt;Group&gt;">
											<path id="&lt;Path&gt;" class="s7" d="m1648.1 1093.2c2.9 11.2 8.4 58.4 32 45.2 5.4-3 10-11.1 14.1-15.7q11-12.5 22-24.9 22-25 43.9-49.9c3.8-4.3-12.8-15-17.5-9.6q-19.5 22.1-39.1 44.3-9.7 11.1-19.5 22.2c-4.5 5.1-15 21.7-21.7 23.1q5.5 1.8 11 3.6c2.5 2.1-2.2-12.9-2.3-13.3q-2.8-10.5-5.5-20.9c-1.5-5.7-19.6-12.6-17.4-4.1z"/>
										</g>
									</g>
								</g>
								<g id="&lt;Group&gt;">
									<g id="&lt;Group&gt;">
										<path id="&lt;Path&gt;" class="s4" d="m2251.7 1250.2l-402.4-9.4-0.7 31.1 402.4 9.5z"/>
										<path id="&lt;Path&gt;" class="s5" d="m2165.6 1316.1l-317.9-7.5-0.7 31.1 317.9 7.5z"/>
									</g>
									<g id="&lt;Group&gt;">
										<path id="&lt;Path&gt;" class="s6" d="m1720.3 1334.9l-95.3-2.3 2.3-95.2 95.2 2.2z"/>
										<g id="&lt;Group&gt;">
											<path id="&lt;Path&gt;" class="s7" d="m1644 1265.2c3 11.3 8.4 58.5 32 45.3 5.5-3.1 10.1-11.1 14.2-15.7q11-12.5 21.9-25 22-24.9 44-49.9c3.7-4.2-12.8-14.9-17.6-9.6q-19.5 22.2-39 44.4-9.8 11.1-19.5 22.1c-4.6 5.2-15 21.7-21.7 23.2q5.5 1.7 10.9 3.5c2.6 2.1-2.2-12.9-2.3-13.3q-2.7-10.4-5.4-20.8c-1.5-5.8-19.7-12.7-17.5-4.2z"/>
										</g>
									</g>
								</g>
								<g id="&lt;Group&gt;">
									<g id="&lt;Group&gt;">
										<path id="&lt;Path&gt;" class="s4" d="m2004.8 1416.4l-159.5-3.7-0.8 31.1 159.5 3.7z"/>
										<path id="&lt;Path&gt;" class="s5" d="m2246.1 1489.9l-402.4-9.4-0.8 31.1c155.7 3.6 354 10.9 394.4 4.7 6.1-7 9.4-15.5 8.8-26.4z"/>
									</g>
									<g id="&lt;Group&gt;">
										<path id="&lt;Path&gt;" class="s6" d="m1717.6 1506.8l-95.3-2.2 2.2-95.3 95.3 2.2z"/>
										<g id="&lt;Group&gt;">
											<path id="&lt;Path&gt;" class="s7" d="m1640 1435.8c3 11.2 8.4 58.4 32 45.2 5.5-3 10.1-11.1 14.2-15.7q10.9-12.5 21.9-24.9 22-25 44-49.9c3.7-4.3-12.9-15-17.6-9.6q-19.5 22.1-39 44.3-9.8 11.1-19.6 22.2c-4.5 5.1-14.9 21.7-21.6 23.1q5.4 1.8 10.9 3.6c2.6 2.1-2.2-12.9-2.3-13.3q-2.7-10.4-5.5-20.9c-1.5-5.7-19.6-12.6-17.4-4.1z"/>
										</g>
									</g>
								</g>
							</g>
						</g>
					</g>
					<g id="&lt;Group&gt;">
						<path id="&lt;Path&gt;" class="s7" d="m2150 391.9v95.1h-382v-95.1c0-15.2 6.2-28.9 16.1-38.9q1.8-1.8 3.9-3.4c9.4-7.9 21.6-12.6 34.9-12.6 10 0 19.5-2.3 28.1-6.4q5.6-2.7 10.6-6.4c10.9-8.1 19.2-19.6 23.4-33.2 4.2-14 12.9-25.7 24.2-33.8 10.8-7.8 23.9-12.2 37.9-12.2h23.8c14 0 27.1 4.4 37.9 12.2 11.3 8.1 20 19.8 24.2 33.8 4.2 13.6 12.5 25.1 23.4 33.2q5 3.7 10.6 6.4c8.6 4.1 18.1 6.4 28.1 6.4 13.3 0 25.5 4.7 34.9 12.6 12.2 10 20 25.2 20 42.3z"/>
						<path id="&lt;Path&gt;" class="s2" d="m2181 440.3v70.7h-444v-70.7h31v46.7h382v-46.7z"/>
						<path id="&lt;Path&gt;" class="s3" d="m1992.9 302c0 17.7-15.2 32.2-33.9 32.2-18.7 0-33.9-14.5-33.9-32.2 0-17.8 15.2-32.2 33.9-32.2 18.7 0 33.9 14.4 33.9 32.2z"/>
					</g>
				</g>
				<g id="&lt;Group&gt;">
					<g id="&lt;Group&gt;">
						<path id="&lt;Path&gt;" class="s8" d="m1226.9 747.1c-13.5-2.6-26.2-25.2-30.6-33.9-1.1-2.1-1.4-4.5-1-6.9l5.4-28.6c0 0 12.5 2.2 11.5 18.7-0.1 1.7 0.3 3.5 0.9 5.1l4.7 12.4 14.1-10.9-7.7-21.8c0 0-10.3 2.9-15.7 1.2-10.9-3.5 3.4-12.1 8-13 4.5-0.9 14.5-4.5 19.1 3.2 4.5 7.7 7.2 12.3 7.2 12.3 0 0 5-17.3 1.6-55.9-0.1-1.8 4.2-1.7 5.4-0.5 3.7 3.7 9.5 15.1 9.8 49.5 0 0 0.6-40.1 7.5-44.2 5.7-3.5 8.6 16.2 4.6 49.5 0 0 7.4-28.8 12.7-28.9 8.9-0.1 0.1 77.1-22.4 100.1z"/>
						<path id="&lt;Path&gt;" class="s8" d="m1269.4 735.3q-0.6 5.7-1.3 11.1v0.1c-1.6 12.8-3.6 24.2-5.9 34-0.2 0.5-0.2 0.9-0.4 1.4-6.8 28-8 41.7-31.4 38.1l-24-27.4-0.3-0.3-1.7-2 4.8-14.4 0.7-1.9 3.6-10.4 0.4-1.4 6.2-18 2.5-7.4z"/>
					</g>
					<g id="&lt;Group&gt;">
						<path id="&lt;Path&gt;" class="s9" d="m822.8 1731.5l-6.1 19.2c-42 13.8-66.5 29.5-68 48h121.3l9.7-64.1c-24.5 6-44.2 1.9-56.9-3.1z"/>
						<path id="&lt;Path&gt;" class="s8" d="m838 1684l-15.2 47.5c12.7 5 32.4 9.1 56.9 3.1l6.3-41.3z"/>
						<path id="&lt;Path&gt;" class="s8" d="m1045.4 1729.4l3.6-48.4-57 3-3.1 44.6c24.1 7.7 44.1 4.7 56.5 0.8z"/>
						<path id="&lt;Path&gt;" class="s9" d="m1114 1798.7c-1.6-18.5-23-43.7-70-49.7l1.4-19.6c-12.4 3.9-32.4 6.9-56.5-0.8l-4.9 70.1z"/>
					</g>
					<path id="&lt;Path&gt;" class="s8" d="m999.2 759.5l-68.7 0.5v-104h66.7v6.4l0.3 32.9 0.5 52.9z"/>
					<path id="&lt;Path&gt;" class="s10" d="m997.5 700.3c-12.3 13-44.6-1.7-58.2-16l57.9-16.9z"/>
					<path id="&lt;Path&gt;" class="s8" d="m1013.5 632c-0.1 7.7-0.5 15.7-1.8 23.4-3.4 21-12.3 39.1-32.7 39.6-48.4 1.4-62.2-26.2-71.4-48.9-9.1-22.7 5.7-77.2 5.7-77.2l62.7-6.2 34.4 28.2c0 0 3.3 19.2 3.1 41.1z"/>
					<path id="&lt;Path&gt;" class="s11" d="m909.6 633.2c0 0 13.8-0.7 16.2-36.3 24.7 8.2 42.7 0.7 57-15.7 12.2 16.1 46.3 21.1 57.9-11.9 8.3-23.8-14.7-59.3-48.2-37.8-32.8-16.6-82.6-15.4-97 25.2 0 0-49.8 23 3 73.6 1 1 11.1 2.9 11.1 2.9z"/>
					<path id="&lt;Path&gt;" class="s11" d="m1100 1133.3l-38 574.7h-89.3l22.3-557.7 13.7-6.3z"/>
					<path id="&lt;Path&gt;" class="s9" d="m867.3 1054.7l-62.6 653.3h97.3l92.7-542.7 105.3-32 4.7-116-234.7-5.3z"/>
					<path id="&lt;Path&gt;" class="s12" d="m881.3 1056.1c53.2 19.1 177.9-2.7 203.8-29.3l-18.4-36.8-205.2 27.2z"/>
					<path id="&lt;Path&gt;" class="s3" d="m1080.3 1017.9c-1.7 0.7-3.5 1.5-5.3 2.2-19.8 8.1-42.5 15.1-66.6 19.8-14.4 2.9-29.4 4.8-44.7 5.5-23 1.2-46.7-0.4-70.1-5.7l29.8-277.8 3.6-33.9c0 0 39 48 82-5z"/>
					<path id="&lt;Path&gt;" class="s13" d="m963.7 1045.4c-23 1.2-46.7-0.4-70.1-5.7l29.8-277.8 10.6-15.4c26.3 63.9 53.2 205.5 29.7 298.9z"/>
					<path id="&lt;Path&gt;" class="s4" d="m930.5 717c29.6 125.8 41.8 255.3-1.8 399-32.4 12.3-67.6 12.2-105.4 1.3l9.4-261.3-219.7 151-13.3-82.3c84.4-80.8 230.4-202.8 330.8-207.7z"/>
					<path id="&lt;Path&gt;" class="s13" d="m1075 1020.1c-19.8 8.1-42.5 15.1-66.6 19.8-13.2-75.9-16.2-200.6-5.4-256.9z"/>
					<path id="&lt;Path&gt;" class="s14" d="m1262.2 780.5c-0.2 0.5-0.2 0.9-0.4 1.4-6.8 28-8 41.7-31.4 38.1l-24-27.4-0.3-0.3 3.1-16.4 0.7-1.9 3.6-10.4 0.4-1.4z"/>
					<path id="&lt;Path&gt;" class="s4" d="m1258 806c0 0-59 125-94 128-33.9 2.9-50-30-50-30l24 182.7c-28.2 13.2-59 19.6-94.7 13.3-31.7-103-43.7-236.2-46-384.5 25.6 1.6 76.5 3.8 94.7 15.5 32.7 21 73 96 73 96l47-64z"/>
					<g id="&lt;Group&gt;">
						<path id="&lt;Path&gt;" class="s15" d="m538.7 629.9c0 0 3.6-59.8 9.7-57 6.1 2.8 18.3 54.8 18.3 54.8l-13.1 21.1z"/>
						<path id="&lt;Path&gt;" class="s7" d="m718.3 1709.7l1.8 19.6c3.1 34.8-22.5 65.5-57.3 68.6l-5 0.5c-34.8 3.1-65.5-22.6-68.6-57.3l-1.8-19.7z"/>
						<path id="&lt;Path&gt;" class="s16" d="m632.7 756.7l85.6 953-130.9 11.7-85.6-952.9z"/>
						<path id="&lt;Path&gt;" class="s17" d="m663.8 1576.7l-46.5 4.2-75-835.3 46.5-4.2z"/>
						<path id="&lt;Path&gt;" class="s11" d="m718.3 1709.7l-130.9 11.7-3.4-38.4-2.4-26.6-7.4-82 130.9-11.8 7.3 82 2.4 26.7z"/>
						<path id="&lt;Path&gt;" class="s16" d="m714.8 1671.3l-130.8 11.7-2.4-26.6 130.8-11.8z"/>
						<path id="&lt;Path&gt;" class="s7" d="m501.8 768.5l36.3-145.7c0 0 12.6 5.5 27.8-3.9l66.8 137.8z"/>
					</g>
					<path id="&lt;Path&gt;" class="s8" d="m916.8 627.1c-0.6-2.1-10.3-5.1-12.5-5.7-3.3-0.9-6.9-1.3-10.2 0.1-11.8 5.4-10.2 22.3-4.1 31.2 3.5 5 8.6 8.9 14.5 10.6 2.1 0.6 22.4 0.8 21.5-2.4 0-0.1-9.1-33.7-9.2-33.8z"/>
					<path id="&lt;Path&gt;" class="s8" d="m545 967c-3.1-9.6-13.2-15-22.7-11.7-14.9 5.1-27.9 13.8-29.9 28.7-1.8 13.5 4.9 56.6 35.1 62.2l-2.4-22.2c0 0 18.4-4.3 22.1-12.3 2.6-5.6 2.8-29-2.2-44.7z"/>
					<path id="&lt;Path&gt;" class="s9" d="m1104.8 818.6c1.6 9.4 2.9 18.9 4.2 28.4 1.4 9.4 2.4 18.9 3.6 28.4l3.1 28.6c0.9 9.5 1.8 19 2.4 28.6l-1.5 0.2c-1.7-9.5-3-19-4.3-28.4l-3.6-28.5c-1-9.5-2.2-19-3-28.5-1-9.6-1.8-19.1-2.5-28.6z"/>
					<path id="&lt;Path&gt;" class="s9" d="m835.8 817c0 10.6-0.3 21.2-0.6 31.8-0.3 10.6-0.8 21.2-1.2 31.8l-1.8 31.7c-0.7 10.6-1.4 21.2-2.4 31.7h-1.6c0-10.6 0.3-21.2 0.6-31.8l1.2-31.8c0.6-10.6 1.1-21.2 1.8-31.7 0.7-10.6 1.4-21.2 2.4-31.7z"/>
					<path id="&lt;Path&gt;" class="s11" d="m965.4 626.1c0.8 3.8-0.7 7.4-3.5 8-2.8 0.6-5.7-2-6.5-5.7-0.9-3.8 0.7-7.4 3.4-8 2.8-0.6 5.7 2 6.6 5.7z"/>
					<path id="&lt;Path&gt;" class="s11" d="m1005.2 621.5c-0.1 3.8-2.5 6.9-5.4 6.7-2.8-0.1-5-3.3-4.8-7.2 0.2-3.8 2.6-6.9 5.4-6.7 2.9 0.1 5 3.3 4.8 7.2z"/>
					<path id="&lt;Path&gt;" class="s10" d="m983 624.6c1.4 3.3 1.2 6.9 2.1 9.6 0.4 1.4 1 2.6 1.9 3.3 0.8 0.8 2.1 1.2 3.7 1.9 1.7 0.6 3.6 1.8 4.8 3.6 1.3 1.6 1.7 4.6 0.5 6.5-1.1 1.9-2.6 3-3.9 4-1.4 0.9-2.7 1.9-4.2 2.7l-1-1.1c1.1-1.3 2.2-2.5 3.3-3.8 1.2-1.1 2.2-2.3 2.6-3.3 0.9-1.9-1-3.9-3.6-4.9-1.3-0.7-3.3-1.2-4.9-2.8-1.5-1.6-2.2-3.5-2.5-5.3-0.7-3.7 0.1-6.9-0.3-10z"/>
					<path id="&lt;Path&gt;" class="s11" d="m946.3 616c0.6-2.4 2-4.6 4.1-6.2 2-1.7 4.6-2.6 7.2-2.7 5.3-0.4 10.5 2.6 12.6 7l-1.2 1c-3.5-2.7-7.3-4.2-11.2-4.1-3.9 0.1-7.4 2.1-10.1 5.7z"/>
					<path id="&lt;Path&gt;" class="s11" d="m987.6 611.1c0.6-1.8 1.6-3.6 3.1-5.1 1.5-1.4 3.6-2.4 5.7-2.8 4.3-0.7 8.9 1.5 10.6 5.3l-1.2 1c-2.9-1.9-5.9-2.7-8.8-2.3-1.5 0.2-2.8 0.7-4.2 1.5-1.3 0.8-2.5 2-3.9 3.2z"/>
					<path id="&lt;Path&gt;" class="s3" d="m965.5 663.4c6.9 10.9 16.2 12.1 23.4 0.6z"/>
					<path id="&lt;Path&gt;" class="s18" d="m1013.7 629.3c-0.1 7.7-0.7 18.4-2 26.1-4.9-1.6-8.4-6.1-8.4-11.5 0-6 4.6-13.6 10.4-14.6z"/>
					<path id="&lt;Path&gt;" class="s18" d="m961.3 651.1c0 7.1-5.8 12.9-12.9 12.9-7.1 0-12.9-5.8-12.9-12.9 0-7.2 5.8-12.9 12.9-12.9 7.1 0 12.9 5.7 12.9 12.9z"/>
					<path id="&lt;Path&gt;" class="s10" d="m908.4 640c-2.6-1.8-4.9-3.7-7.2-4.8-1.2-0.5-2.3-0.9-3.2-0.8-1 0.1-2.1 0.6-3.3 1.5l-1.4-0.8c0.6-1.6 1.7-3.4 3.8-4.1 2.1-0.7 4.3-0.2 5.8 0.7 3.2 1.7 5.4 4.3 6.7 7.3z"/>
					<path id="&lt;Path&gt;" class="s19" d="m547.2 1011.7l-18.5 56.4-3.9-44.1c11.6-2.5 17.9-7.1 22.4-12.3z"/>
				</g>
				<path id="&lt;Path&gt;" class="s20" d="m240.4 1799h2585.9"/>
			</g>
		</g>
	</g>
</svg>